<svg width="136" height="119" viewBox="0 0 136 119" fill="none" xmlns="http://www.w3.org/2000/svg">
<path fill-rule="evenodd" clip-rule="evenodd" d="M76.4231 60.5012C64.6435 60.5012 55.0943 68.8799 55.0943 79.2155V79.2633C55.0943 89.5989 64.6435 97.9776 76.4231 97.9776H107.877C109.052 97.9776 110.204 97.8942 111.328 97.7339L117.422 102.898C117.587 103.039 117.809 103.117 118.039 103.117C118.53 103.117 118.928 102.768 118.928 102.338L118.928 95.2727C125.089 91.9914 129.206 86.0491 129.206 79.2633V79.2155C129.206 68.8799 119.656 60.5012 107.877 60.5012H76.4231Z" fill="#1D4885"/>
<path d="M81.5964 15.6649H36.6853C19.8573 15.6649 6.21558 27.6345 6.21558 42.3997C6.21558 57.1648 19.8573 69.1344 36.6853 69.1344H81.5964C98.4244 69.1344 112.066 57.1648 112.066 42.3997C112.066 27.6345 98.4244 15.6649 81.5964 15.6649Z" fill="url(#paint0_linear_37_1668)"/>
<path fill-rule="evenodd" clip-rule="evenodd" d="M20.895 61.3577V75.3535C20.895 75.9688 21.4634 76.4675 22.1646 76.4675C22.4934 76.4675 22.8095 76.3555 23.0461 76.1552L34.7678 66.2316L20.895 61.3577Z" fill="url(#paint1_linear_37_1668)"/>
<path d="M38.7485 45.7414C41.4655 45.7414 43.668 43.8088 43.668 41.4248C43.668 39.0409 41.4655 37.1083 38.7485 37.1083C36.0314 37.1083 33.8289 39.0409 33.8289 41.4248C33.8289 43.8088 36.0314 45.7414 38.7485 45.7414Z" fill="white"/>
<path d="M58.903 45.7414C61.62 45.7414 63.8226 43.8088 63.8226 41.4248C63.8226 39.0409 61.62 37.1083 58.903 37.1083C56.186 37.1083 53.9834 39.0409 53.9834 41.4248C53.9834 43.8088 56.186 45.7414 58.903 45.7414Z" fill="white"/>
<path d="M79.5334 45.7414C82.2504 45.7414 84.453 43.8088 84.453 41.4248C84.453 39.0409 82.2504 37.1083 79.5334 37.1083C76.8163 37.1083 74.6138 39.0409 74.6138 41.4248C74.6138 43.8088 76.8163 45.7414 79.5334 45.7414Z" fill="white"/>
<defs>
<linearGradient id="paint0_linear_37_1668" x1="132.909" y1="-65.222" x2="111.458" y2="83.2382" gradientUnits="userSpaceOnUse">
<stop stop-color="#5498FF"/>
<stop offset="0.515625" stop-color="#428EFF"/>
<stop offset="1" stop-color="#297FFF"/>
</linearGradient>
<linearGradient id="paint1_linear_37_1668" x1="37.4995" y1="38.5" x2="25.337" y2="77.5398" gradientUnits="userSpaceOnUse">
<stop stop-color="#5498FF"/>
<stop offset="0.515625" stop-color="#428EFF"/>
<stop offset="1" stop-color="#297FFF"/>
</linearGradient>
</defs>
</svg>
